<?xml version="1.0"?>
<svg width="172" height="40" xmlns="http://www.w3.org/2000/svg" xmlns:svg="http://www.w3.org/2000/svg">
 <defs>
  <clipPath id="clip0_1225_89">
   <rect fill="white" height="40" id="svg_1" width="172"/>
  </clipPath>
  <clipPath id="clip1_1225_89">
   <rect fill="white" height="40.01" id="svg_2" width="39.98"/>
  </clipPath>
 </defs>
 <g class="layer">
  <title>Layer 1</title>
  <g clip-path="url(#clip0_1225_89)" id="svg_3">
   <g clip-path="url(#clip1_1225_89)" id="svg_15">
    <path d="m37.57,15.73l-10.33,-10.56c-0.54,-0.55 -1.19,-0.99 -1.9,-1.29c-0.71,-0.3 -1.47,-0.46 -2.24,-0.46c-0.77,0 -1.53,0.16 -2.24,0.46c-0.71,0.3 -1.36,0.74 -1.9,1.29c-1.1,1.13 -1.71,2.65 -1.71,4.23c0,1.58 0.61,3.1 1.71,4.22l1.26,1.29l7.55,7.71c1.13,1.16 1.96,2.58 2.41,4.15c0.44,1.57 0.5,3.22 0.15,4.81l7.21,-7.36c0.01,-0.01 0.02,-0.03 0.04,-0.04c1.09,-1.12 1.71,-2.64 1.71,-4.22c0,-1.59 -0.62,-3.11 -1.72,-4.23z" fill="#4D4DDB" id="svg_16"/>
    <path d="m19.8,24.96l-7.54,-7.71c-1.14,-1.16 -1.96,-2.59 -2.41,-4.15c-0.45,-1.57 -0.5,-3.22 -0.16,-4.81l-7.21,7.36c-0.01,0.01 -0.02,0.02 -0.03,0.03c-1.1,1.13 -1.72,2.65 -1.72,4.23c0,1.58 0.62,3.1 1.72,4.23l10.34,10.55c0.54,0.56 1.18,1 1.89,1.3c0.71,0.3 1.47,0.45 2.24,0.45c0.77,0 1.54,-0.15 2.25,-0.45c0.71,-0.3 1.35,-0.74 1.89,-1.3c1.1,-1.12 1.72,-2.64 1.72,-4.22c0,-1.58 -0.62,-3.1 -1.72,-4.23l-1.26,-1.28z" fill="#F7681C" id="svg_17"/>
   </g>
   <text fill="#000000" font-family="Serif" font-size="24" id="svg_18" stroke-width="0" style="cursor: move;" text-anchor="middle" x="104" xml:space="preserve" y="27">EchoStressAI</text>
  </g>
 </g>
</svg>