<svg width="43" height="35" viewBox="0 0 43 35" fill="none" xmlns="http://www.w3.org/2000/svg">
<path fill-rule="evenodd" clip-rule="evenodd" d="M25.5322 2.03208C24.5647 1.49603 23.407 1.61202 22.5419 2.33169L9.97941 11.1934H4.26918C2.69234 11.1934 1.41406 12.6104 1.41406 14.3583V20.6881C1.41406 22.436 2.69234 23.853 4.26918 23.853H9.97941L22.5419 32.7147C23.4071 33.434 24.5646 33.5497 25.5318 33.0136C26.4991 32.4775 27.1101 31.3816 27.1101 30.1828V4.86361C27.1104 3.66464 26.4995 2.56841 25.5322 2.03208Z" stroke="#FF7313" stroke-width="1.5" stroke-linecap="round" stroke-linejoin="round"/>
<path d="M39.4124 25.4367C42.0417 20.8685 42.0417 15.0244 39.4124 10.4562" stroke="#FF7313" stroke-width="1.5" stroke-linecap="round" stroke-linejoin="round"/>
<path d="M33.8896 22.6727C35.874 19.965 35.874 16.0861 33.8896 13.3784" stroke="#FF7313" stroke-width="1.5" stroke-linecap="round" stroke-linejoin="round"/>
<path d="M9.97925 11.1934V23.853" stroke="#FF7313" stroke-width="1.5" stroke-linecap="round" stroke-linejoin="round"/>
</svg>
