<svg width="56" height="56" viewBox="0 0 56 56" fill="none" xmlns="http://www.w3.org/2000/svg">
<rect x="56" width="56" height="56" rx="28" transform="rotate(90 56 0)" fill="white"/>
<path fill-rule="evenodd" clip-rule="evenodd" d="M31.7169 19.3028C32.1019 19.6988 32.0931 20.3319 31.6972 20.7169L24.2075 28L31.6972 35.2831C32.0931 35.6681 32.1019 36.3012 31.7169 36.6972C31.3319 37.0931 30.6988 37.1019 30.3028 36.7169L22.4641 29.0943C22.4639 29.0942 22.4637 29.094 22.4636 29.0938C22.1702 28.8087 22 28.4158 22 28C22 27.5842 22.1702 27.1913 22.4636 26.9062C22.4637 26.906 22.4639 26.9058 22.4641 26.9057L30.3028 19.2831C30.6988 18.8981 31.3319 18.9069 31.7169 19.3028Z" fill="#4D4DDB"/>
</svg>
