<svg width="47" height="47" viewBox="0 0 47 47" fill="none" xmlns="http://www.w3.org/2000/svg">
<path fill-rule="evenodd" clip-rule="evenodd" d="M3.58032 21.1586C3.58032 15.3337 8.30232 10.6117 14.1272 10.6117L32.8772 10.6117C38.7021 10.6117 43.4241 15.3337 43.4241 21.1586L43.4241 25.7159C43.4241 30.922 39.2386 35.1505 34.0491 35.2202L34.0491 39.9086C34.0491 40.3475 33.8037 40.7497 33.4134 40.9506C33.0231 41.1514 32.5533 41.1173 32.1961 40.8622L24.6041 35.4394C24.4054 35.2974 24.1672 35.2211 23.923 35.2211L14.1272 35.2211C8.30232 35.2211 3.58032 30.4991 3.58032 24.6742L3.58032 21.1586ZM14.1272 12.9554C9.59674 12.9554 5.92407 16.6281 5.92407 21.1586L5.92407 24.6742C5.92407 29.2047 9.59674 32.8773 14.1272 32.8773L23.923 32.8773C24.6557 32.8773 25.3701 33.1063 25.9664 33.5322L31.7053 37.6314L31.7053 35.0909C31.7053 33.8684 32.6964 32.8773 33.9189 32.8773C37.874 32.8773 41.0803 29.671 41.0803 25.7159L41.0803 21.1586C41.0803 16.6281 37.4077 12.9554 32.8772 12.9554L14.1272 12.9554Z" fill="#6C7F8E"/>
<path fill-rule="evenodd" clip-rule="evenodd" d="M34.0473 19.9852C34.0473 19.338 33.5226 18.8133 32.8754 18.8133L14.1254 18.8133C13.4782 18.8133 12.9536 19.338 12.9536 19.9852C12.9536 20.6324 13.4782 21.1571 14.1254 21.1571L32.8754 21.1571C33.5226 21.1571 34.0473 20.6324 34.0473 19.9852Z" fill="#6C7F8E"/>
<path fill-rule="evenodd" clip-rule="evenodd" d="M34.0473 25.8446C34.0473 25.1974 33.5226 24.6727 32.8754 24.6727L14.1254 24.6727C13.4782 24.6727 12.9536 25.1974 12.9536 25.8446C12.9536 26.4918 13.4782 27.0165 14.1254 27.0165L32.8754 27.0165C33.5226 27.0165 34.0473 26.4918 34.0473 25.8446Z" fill="#6C7F8E"/>
</svg>
