<svg width="35" height="46" viewBox="0 0 35 46" fill="none" xmlns="http://www.w3.org/2000/svg">
<path d="M10.4001 8.05002C10.4001 3.96312 14.0266 0.650024 18.5001 0.650024C22.9737 0.650024 26.6001 3.96312 26.6001 8.05002V9.97033L31.1196 5.01573C31.8355 4.23082 33.1124 4.12477 33.9716 4.77886C34.8307 5.43295 34.9468 6.5995 34.2308 7.38441L3.85585 40.6844C3.13988 41.4693 1.86298 41.5754 1.00382 40.9213C0.144663 40.2672 0.0285819 39.1006 0.744549 38.3157L6.1322 32.4093C3.74168 29.8304 2.30015 26.494 2.30015 22.85V16.375C2.30015 15.3533 3.20677 14.525 4.32515 14.525C5.44352 14.525 6.35015 15.3533 6.35015 16.375V22.85C6.35015 25.3482 7.25351 27.6537 8.77808 29.5086L11.4809 26.5455C10.7935 25.4581 10.4001 24.196 10.4001 22.85V8.05002Z" fill="white"/>
<path d="M16.8832 30.1026L26.6001 19.4499V22.85C26.6001 26.9369 22.9737 30.25 18.5001 30.25C17.9464 30.25 17.4057 30.1993 16.8832 30.1026Z" fill="white"/>
<path d="M14.0684 33.1885L11.3723 36.1442C12.9465 36.8499 14.6644 37.3292 16.4751 37.5355V41.35H10.4001C9.28177 41.35 8.37515 42.1783 8.37515 43.2C8.37515 44.2217 9.28177 45.05 10.4001 45.05H26.6001C27.7185 45.05 28.6251 44.2217 28.6251 43.2C28.6251 42.1783 27.7185 41.35 26.6001 41.35H20.5251V37.5355C28.5164 36.6251 34.7001 30.3973 34.7001 22.85V16.375C34.7001 15.3533 33.7935 14.525 32.6751 14.525C31.5568 14.525 30.6501 15.3533 30.6501 16.375V22.85C30.6501 28.9804 25.2104 33.95 18.5001 33.95C16.9363 33.95 15.4414 33.6801 14.0684 33.1885Z" fill="white"/>
</svg>
