<svg width="30" height="44" viewBox="0 0 30 44" fill="none" xmlns="http://www.w3.org/2000/svg">
<path d="M7.80004 7.40001C7.80004 3.42356 11.0236 0.200012 15 0.200012C18.9765 0.200012 22.2 3.42356 22.2 7.40001V21.8C22.2 25.7765 18.9765 29 15 29C11.0236 29 7.80004 25.7765 7.80004 21.8V7.40001Z" fill="white"/>
<path fill-rule="evenodd" clip-rule="evenodd" d="M2.40004 13.7C3.39415 13.7 4.20004 14.5059 4.20004 15.5V21.8C4.20004 27.7647 9.03536 32.6 15 32.6C20.9647 32.6 25.8 27.7647 25.8 21.8V15.5C25.8 14.5059 26.6059 13.7 27.6 13.7C28.5941 13.7 29.4 14.5059 29.4 15.5V21.8C29.4 29.7529 22.9529 36.2 15 36.2C7.04714 36.2 0.600037 29.7529 0.600037 21.8V15.5C0.600037 14.5059 1.40592 13.7 2.40004 13.7Z" fill="white"/>
<path fill-rule="evenodd" clip-rule="evenodd" d="M13.2 41.6V34.4H16.8V41.6H13.2Z" fill="white"/>
<path fill-rule="evenodd" clip-rule="evenodd" d="M24 41.6C24 42.5941 23.1941 43.4 22.2 43.4H7.80004C6.80592 43.4 6.00004 42.5941 6.00004 41.6C6.00004 40.6059 6.80592 39.8 7.80004 39.8H22.2C23.1941 39.8 24 40.6059 24 41.6Z" fill="white"/>
</svg>
