<svg width="72" height="72" viewBox="0 0 72 72" fill="none" xmlns="http://www.w3.org/2000/svg">
<path fill-rule="evenodd" clip-rule="evenodd" d="M36 72C55.8823 72 72 55.8823 72 36C72 16.1178 55.8823 0 36 0C16.1178 0 0 16.1178 0 36C0 55.8823 16.1178 72 36 72Z" fill="#FF7313"/>
<path d="M28.7999 23.4C28.7999 19.4236 32.0234 16.2 35.9999 16.2C39.9763 16.2 43.1999 19.4236 43.1999 23.4V37.8C43.1999 41.7765 39.9763 45 35.9999 45C32.0234 45 28.7999 41.7765 28.7999 37.8V23.4Z" fill="white"/>
<path fill-rule="evenodd" clip-rule="evenodd" d="M23.3999 29.7C24.394 29.7 25.1999 30.5059 25.1999 31.5V37.8C25.1999 43.7647 30.0352 48.6 35.9999 48.6C41.9645 48.6 46.7999 43.7647 46.7999 37.8V31.5C46.7999 30.5059 47.6057 29.7 48.5999 29.7C49.594 29.7 50.3999 30.5059 50.3999 31.5V37.8C50.3999 45.7529 43.9528 52.2 35.9999 52.2C28.047 52.2 21.5999 45.7529 21.5999 37.8V31.5C21.5999 30.5059 22.4057 29.7 23.3999 29.7Z" fill="white"/>
<path fill-rule="evenodd" clip-rule="evenodd" d="M34.1999 57.6V50.4H37.7999V57.6H34.1999Z" fill="white"/>
<path fill-rule="evenodd" clip-rule="evenodd" d="M44.9999 57.6C44.9999 58.5941 44.194 59.4 43.1999 59.4H28.7999C27.8057 59.4 26.9999 58.5941 26.9999 57.6C26.9999 56.6059 27.8057 55.8 28.7999 55.8H43.1999C44.194 55.8 44.9999 56.6059 44.9999 57.6Z" fill="white"/>
</svg>
